<?xml version="1.0" encoding="UTF-8"?>
<svg xmlns="http://www.w3.org/2000/svg" viewBox="0 0 100 100">
  <defs>
    <radialGradient id="cg" cx="42%" cy="38%" r="62%">
      <stop offset="0%" stop-color="#fff5b5"/>
      <stop offset="55%" stop-color="#ffe066"/>
      <stop offset="100%" stop-color="#f2a700"/>
    </radialGradient>
  </defs>
  <circle cx="50" cy="50" r="44" fill="url(#cg)" stroke="#9c5a00" stroke-width="5"/>
  <circle cx="50" cy="50" r="36" fill="none" stroke="#ffd86f" stroke-width="4" opacity="0.7"/>
  <path d="M34 30c-6 24 4 44 24 52 6 2 12 3 18 2-14 8-32 6-44-6-14-14-14-38 2-50z" fill="#f6ad21" opacity="0.5"/>
  <path d="M40 26c14 10 22 28 18 46-3 14-14 26-30 28 12-2 24-12 28-26 6-20-2-40-16-48z" fill="#8c4a00" opacity="0.55"/>
  <path d="M58 32c-3 2-7 3-12 3-12 0-22 9-22 22 0 11 8 20 19 22-13 1-25-8-25-23 0-15 13-26 28-26 4 0 8 .5 12 2z" fill="#7a3f00"/>
  <ellipse cx="42" cy="34" rx="8" ry="5" fill="#fff7cc" opacity="0.85"/>
</svg>
