<?xml version="1.0" encoding="UTF-8"?>
<svg xmlns="http://www.w3.org/2000/svg" viewBox="0 0 300 250">
  <defs>
    <linearGradient id="catf" x1="0" y1="0" x2="0" y2="1"><stop offset="0%" stop-color="#3c3338"/><stop offset="100%" stop-color="#241f22"/></linearGradient>
    <linearGradient id="mky" x1="0" y1="0" x2="0" y2="1"><stop offset="0%" stop-color="#7a5036"/><stop offset="100%" stop-color="#5a3a28"/></linearGradient>
  </defs>
  <path d="M58 150c-30 4-54-8-58-36-3-22 10-40 28-40" fill="none" stroke="#2b2422" stroke-width="13" stroke-linecap="round"/>
  <path d="M96 156c0 24-2 40-2 54" fill="none" stroke="#241f22" stroke-width="15" stroke-linecap="round"/>
  <path d="M150 156c0 24 0 40 0 54" fill="none" stroke="#241f22" stroke-width="15" stroke-linecap="round"/>
  <ellipse cx="140" cy="150" rx="80" ry="40" fill="url(#catf)" stroke="#15110f" stroke-width="6"/>
  <ellipse cx="150" cy="160" rx="56" ry="24" fill="#f1e4cb"/>
  <path d="M120 168c0 22 0 36 0 48" fill="none" stroke="#2b2422" stroke-width="15" stroke-linecap="round"/>
  <path d="M196 168c0 22 0 36 0 48" fill="none" stroke="#2b2422" stroke-width="15" stroke-linecap="round"/>
  <g transform="translate(214,120)">
    <path d="M-14 -20l-10 -30 26 16z" fill="url(#catf)" stroke="#15110f" stroke-width="5"/>
    <path d="M16 -24l8 -30 14 30z" fill="url(#catf)" stroke="#15110f" stroke-width="5"/>
    <ellipse cx="6" cy="0" rx="32" ry="30" fill="url(#catf)" stroke="#15110f" stroke-width="6"/>
    <ellipse cx="26" cy="10" rx="17" ry="13" fill="#f1e4cb"/>
    <ellipse cx="40" cy="8" rx="5" ry="4" fill="#f6829b"/>
    <ellipse cx="16" cy="-4" rx="9" ry="11" fill="#ffd23f" stroke="#15110f" stroke-width="3"/>
    <ellipse cx="19" cy="-3" rx="4" ry="8" fill="#15110f"/>
    <path d="M36 8h22M36 14l20 6" stroke="#efe6d2" stroke-width="2.5" fill="none" stroke-linecap="round"/>
  </g>
  <g transform="translate(120,84)">
    <path d="M-18 18c-34 6-58-14-52-44 5-26 34-34 44-14 7 14-2 28-16 28-10 0-16-8-14-18" fill="none" stroke="#8a5a3c" stroke-width="10" stroke-linecap="round"/>
    <ellipse cx="0" cy="2" rx="26" ry="28" fill="url(#mky)" stroke="#281612" stroke-width="5"/>
    <path d="M12 8c16 8 28 4 34 -6" fill="none" stroke="#5a3a28" stroke-width="9" stroke-linecap="round"/>
    <ellipse cx="6" cy="-26" rx="20" ry="19" fill="url(#mky)" stroke="#281612" stroke-width="5"/>
    <ellipse cx="-10" cy="-28" rx="8" ry="9" fill="url(#mky)" stroke="#281612" stroke-width="4"/>
    <ellipse cx="22" cy="-26" rx="8" ry="9" fill="url(#mky)" stroke="#281612" stroke-width="4"/>
    <ellipse cx="7" cy="-23" rx="13" ry="14" fill="#f0c79a"/>
    <ellipse cx="2" cy="-26" rx="3" ry="3.6" fill="#281612"/>
    <ellipse cx="13" cy="-26" rx="3" ry="3.6" fill="#281612"/>
    <path d="M2 -15c4 4 9 4 12 0" fill="none" stroke="#281612" stroke-width="2.5" stroke-linecap="round"/>
  </g>
</svg>
