<?xml version="1.0" encoding="UTF-8"?>
<svg xmlns="http://www.w3.org/2000/svg" viewBox="0 0 240 200">
  <defs>
    <linearGradient id="fur" x1="0" y1="0" x2="0" y2="1">
      <stop offset="0%" stop-color="#3f3236"/>
      <stop offset="100%" stop-color="#241f22"/>
    </linearGradient>
    <linearGradient id="belly" x1="0" y1="0" x2="0" y2="1">
      <stop offset="0%" stop-color="#f8f0df"/>
      <stop offset="100%" stop-color="#e9d8bd"/>
    </linearGradient>
    <linearGradient id="metal" x1="0" y1="0" x2="1" y2="1">
      <stop offset="0%" stop-color="#dbe8f1"/>
      <stop offset="100%" stop-color="#8fa2b3"/>
    </linearGradient>
    <radialGradient id="eye" cx="50%" cy="40%" r="60%">
      <stop offset="0%" stop-color="#ffe470"/>
      <stop offset="100%" stop-color="#ff9f1a"/>
    </radialGradient>
  </defs>
  <path d="M70 120c-34 4-60-8-72-34-10-22-4-46 14-54 14-6 28 0 30 14 2 12-6 20-16 18-8-2-10-10-6-16" fill="none" stroke="#2b2629" stroke-width="16" stroke-linecap="round"/>
  <g transform="translate(58,58)">
    <rect x="0" y="0" width="46" height="78" rx="18" fill="url(#metal)" stroke="#27313b" stroke-width="6"/>
    <rect x="10" y="12" width="26" height="40" rx="10" fill="#ff7a3a" stroke="#361a12" stroke-width="5"/>
    <circle cx="23" cy="32" r="9" fill="#ffd8ad"/>
    <rect x="12" y="74" width="22" height="16" rx="6" fill="#3c4c5a" stroke="#1a222b" stroke-width="4"/>
  </g>
  <path d="M118 150c-6 20-22 30-40 28" fill="none" stroke="#241f22" stroke-width="20" stroke-linecap="round"/>
  <path d="M96 70c40-16 92-10 116 16 22 24 18 64-10 84-30 22-86 22-118-2-26-20-30-58-10-82 6-8 14-12 22-14z" fill="url(#fur)" stroke="#1b171b" stroke-width="6"/>
  <path d="M120 110c26-10 56-6 70 12 12 16 6 40-14 50-22 12-52 8-66-8-10-14-6-46 10-54z" fill="url(#belly)"/>
  <path d="M150 156c-4 18-16 28-32 28" fill="none" stroke="#241f22" stroke-width="20" stroke-linecap="round"/>
  <path d="M170 120c20-2 38 6 50 22" fill="none" stroke="#241f22" stroke-width="18" stroke-linecap="round"/>
  <g transform="translate(150,40)">
    <path d="M14 14l-2-26 26 14z" fill="url(#fur)" stroke="#1b171b" stroke-width="5"/>
    <path d="M52 8l14-24 8 28z" fill="url(#fur)" stroke="#1b171b" stroke-width="5"/>
    <path d="M6 26c0-22 22-36 46-34 28 2 48 22 46 48-2 24-24 40-50 38C20 76 6 56 6 30z" fill="url(#fur)" stroke="#1b171b" stroke-width="6"/>
    <path d="M70 44c20-2 34 8 34 22 0 12-14 20-30 18-12-2-18-12-16-24 2-10 6-14 12-16z" fill="url(#belly)"/>
    <ellipse cx="98" cy="58" rx="7" ry="5" fill="#f6829b"/>
    <circle cx="60" cy="34" r="14" fill="url(#eye)" stroke="#1b171b" stroke-width="4"/>
    <ellipse cx="62" cy="34" rx="5" ry="9" fill="#1b171b"/>
    <circle cx="59" cy="30" r="3" fill="#fff"/>
    <path d="M44 16c10-8 26-8 36 0" fill="none" stroke="#1b171b" stroke-width="5" stroke-linecap="round"/>
  </g>
</svg>
