<?xml version="1.0" encoding="UTF-8"?>
<svg xmlns="http://www.w3.org/2000/svg" viewBox="0 0 280 240">
  <defs>
    <linearGradient id="fur" x1="0" y1="0" x2="0" y2="1">
      <stop offset="0%" stop-color="#473a3f"/>
      <stop offset="100%" stop-color="#26201f"/>
    </linearGradient>
    <linearGradient id="belly" x1="0" y1="0" x2="0" y2="1">
      <stop offset="0%" stop-color="#f8f0df"/>
      <stop offset="100%" stop-color="#e7d3b5"/>
    </linearGradient>
    <linearGradient id="skin" x1="0" y1="0" x2="0" y2="1">
      <stop offset="0%" stop-color="#f3c79a"/>
      <stop offset="100%" stop-color="#e0a878"/>
    </linearGradient>
    <linearGradient id="metal" x1="0" y1="0" x2="1" y2="1">
      <stop offset="0%" stop-color="#dbe8f1"/>
      <stop offset="100%" stop-color="#8fa2b3"/>
    </linearGradient>
    <radialGradient id="eye" cx="50%" cy="40%" r="60%">
      <stop offset="0%" stop-color="#ffe470"/>
      <stop offset="100%" stop-color="#ff9f1a"/>
    </radialGradient>
  </defs>
  <path d="M86 150c-30 6-58-2-74-26-12-18-10-44 8-56 16-10 38-6 46 10 7 14 1 30-13 35-12 4-24-2-26-14-1-8 4-15 12-16" fill="none" stroke="#2b2422" stroke-width="15" stroke-linecap="round"/>
  <g transform="translate(48,82)">
    <rect x="0" y="0" width="44" height="80" rx="18" fill="url(#metal)" stroke="#27313b" stroke-width="6"/>
    <rect x="9" y="12" width="26" height="42" rx="10" fill="#ff7a3a" stroke="#3a1c12" stroke-width="5"/>
    <circle cx="22" cy="33" r="9" fill="#ffd8ad"/>
    <rect x="11" y="76" width="22" height="16" rx="6" fill="#3c4c5a" stroke="#1a222b" stroke-width="4"/>
  </g>
  <path d="M132 176c-4 20-18 30-36 30" fill="none" stroke="#26201f" stroke-width="22" stroke-linecap="round"/>
  <ellipse cx="124" cy="148" rx="74" ry="52" fill="url(#fur)" stroke="#15110f" stroke-width="6"/>
  <ellipse cx="138" cy="158" rx="46" ry="36" fill="url(#belly)"/>
  <path d="M170 182c-4 18-16 28-32 28" fill="none" stroke="#26201f" stroke-width="22" stroke-linecap="round"/>
  <path d="M196 150c20-2 38 4 52 18" fill="none" stroke="#26201f" stroke-width="18" stroke-linecap="round"/>
  <circle cx="248" cy="168" r="11" fill="#26201f"/>
  <g transform="translate(196,86)">
    <circle cx="-34" cy="0" r="22" fill="url(#fur)" stroke="#15110f" stroke-width="6"/>
    <circle cx="-34" cy="0" r="11" fill="url(#skin)"/>
    <circle cx="40" cy="2" r="22" fill="url(#fur)" stroke="#15110f" stroke-width="6"/>
    <circle cx="40" cy="2" r="11" fill="url(#skin)"/>
    <path d="M-18 -30l-6 -26 26 16z" fill="url(#fur)" stroke="#15110f" stroke-width="5"/>
    <path d="M20 -30l12 -26 8 28z" fill="url(#fur)" stroke="#15110f" stroke-width="5"/>
    <circle cx="4" cy="6" r="44" fill="url(#fur)" stroke="#15110f" stroke-width="6"/>
    <path d="M4 -22c26 0 40 18 40 40 0 24-20 40-40 40s-40-16-40-40c0-22 14-40 40-40z" fill="url(#skin)"/>
    <circle cx="-14" cy="6" r="13" fill="url(#eye)" stroke="#15110f" stroke-width="4"/>
    <circle cx="-11" cy="8" r="6" fill="#15110f"/>
    <circle cx="-15" cy="3" r="2.5" fill="#fff"/>
    <circle cx="22" cy="6" r="13" fill="url(#eye)" stroke="#15110f" stroke-width="4"/>
    <circle cx="25" cy="8" r="6" fill="#15110f"/>
    <circle cx="21" cy="3" r="2.5" fill="#fff"/>
    <path d="M-28 -12c8-7 20-7 28 0" fill="none" stroke="#7a5638" stroke-width="4" stroke-linecap="round"/>
    <path d="M8 -12c8-7 20-7 28 0" fill="none" stroke="#7a5638" stroke-width="4" stroke-linecap="round"/>
    <ellipse cx="4" cy="26" rx="6" ry="4.5" fill="#3a2418"/>
    <path d="M-8 36c8 8 20 8 28 0" fill="none" stroke="#3a2418" stroke-width="4" stroke-linecap="round"/>
    <path d="M30 24c14 0 24 4 32 10M30 32c14 2 24 8 30 16" fill="none" stroke="#efe6d2" stroke-width="3" stroke-linecap="round" opacity="0.8"/>
  </g>
</svg>
